<svg xmlns="http://www.w3.org/2000/svg" aria-hidden="true" style="position:absolute;width:0;height:0;overflow:hidden">
  <defs>
    <symbol id="icon-icon-send" viewBox="0 0 32 32">
      <path d="M32 0 0 18l10 4L26 7 14 23v9l6-7 7 3 5-28z"/>
    </symbol>
    <symbol id="icon-phone" viewBox="0 0 32 32">
      <path d="m25 20-3-1-2 1-3 2c-4-1-6-4-8-8l2-2 1-2-1-4-2-2H7C5 4 4 5 4 7c1 11 10 19 20 20 2 0 3-1 3-2v-3l-2-2z"/>
    </symbol>
    <symbol id="icon-person" viewBox="0 0 32 32">
      <path d="M16 16a5 5 0 1 0 0-11 5 5 0 0 0 0 11zm0 3c-4 0-11 1-11 5v1l2 2h18l2-2v-1c0-4-7-5-11-5z"/>
    </symbol>
    <symbol id="icon-email" viewBox="0 0 32 32">
      <path d="M27 5H5L3 8v16l2 3h22l2-3V8l-2-3zm-1 6-9 6h-2l-9-6-1-1 2-1 9 6 9-6a1 1 0 1 1 1 2z"/>
    </symbol>
     <symbol id="icon-icon-check" viewBox="0 0 34 32">
      <path fill="#2196f3" d="M4 0h26c2 0 4 2 4 4v24c0 2-2 4-4 4H4c-2 0-4-2-4-4V4c0-2 2-4 4-4z" style="fill:var(--color1, #2196f3)"/>
      <path fill="#fff" stroke="#fff" stroke-width=".4" d="M8 17v-1l-2 2 8 8 16-16-2-2-14 14-6-5z" style="fill:var(--color2, #fff);stroke:var(--color2, #fff)"/>
    </symbol>
  </defs>
</svg>
